<svg width="512" height="512" xmlns="http://www.w3.org/2000/svg">

 <g>
  <title>background</title>
  <rect fill="none" id="canvas_background" height="514" width="514" y="-1" x="-1"/>
 </g>
 <g>
  <title>Layer 1</title>
  <path stroke="null" id="svg_1" d="m175,193l0,-12.687l36.687,36.687l-12.687,0a24.028,24.028 0 0 1 -24,-24zm280,24l12.687,0l-36.687,-36.687l0,12.687a24.028,24.028 0 0 0 24,24zm-424,184l0,-208a24.028,24.028 0 0 1 24,-24l104,0l0,24a40.045,40.045 0 0 0 40,40l24,0l0,168a24.028,24.028 0 0 1 -24,24l-144,0a24.028,24.028 0 0 1 -24,-24zm160,-32a8,8 0 0 0 -8,-8l-48,0a8,8 0 0 0 0,16l48,0a8,8 0 0 0 8,-8zm0,-48a8,8 0 0 0 -8,-8l-16,0a8,8 0 0 0 0,16l16,0a8,8 0 0 0 8,-8zm-80,-48a8,8 0 0 0 8,8l64,0a8,8 0 0 0 0,-16l-64,0a8,8 0 0 0 -8,8zm-48,-48a8,8 0 0 0 8,8l32,0a8,8 0 0 0 0,-16l-32,0a8,8 0 0 0 -8,8zm0,48a8,8 0 0 0 8,8l16,0a8,8 0 0 0 0,-16l-16,0a8,8 0 0 0 -8,8zm0,48a8,8 0 0 0 8,8l64,0a8,8 0 0 0 0,-16l-64,0a8,8 0 0 0 -8,8zm0,48a8,8 0 0 0 8,8l32,0a8,8 0 0 0 0,-16l-32,0a8,8 0 0 0 -8,8zm392,-136l24,0l0,168a24.028,24.028 0 0 1 -24,24l-144,0a24.028,24.028 0 0 1 -24,-24l0,-208a24.028,24.028 0 0 1 24,-24l104,0l0,24a40.045,40.045 0 0 0 40,40zm-96,64a8,8 0 1 0 -8,8a8,8 0 0 0 8,-8zm32,0a8,8 0 1 0 -8,8a8,8 0 0 0 8,-8zm32,0a8,8 0 1 0 -8,8a8,8 0 0 0 8,-8zm-96,-176a8,8 0 0 0 8,8l40,0a8,8 0 0 0 8,-8l0,-40a8,8 0 0 0 -16,0l0,15.573c-5.939,-3.987 -13.93,-7.884 -24.617,-11.447c-23.459,-7.819 -54.492,-12.126 -87.383,-12.126s-63.924,4.307 -87.383,12.126c-33.57,11.19 -40.617,25.685 -40.617,35.874a8,8 0 0 0 16,0c0,-13.048 43.631,-32 112,-32c55.231,0 94.312,12.368 107.294,24l-27.294,0a8,8 0 0 0 -8,8z"/>
 </g>
</svg>